<svg width="99" height="99" viewBox="0 0 99 99" fill="none" xmlns="http://www.w3.org/2000/svg">
<circle cx="49.5" cy="49.5" r="49.5" fill="white"/>
<path fill-rule="evenodd" clip-rule="evenodd" d="M40.8694 46.8471C40.8701 46.8481 40.8708 46.849 40.8716 46.8499C40.8717 46.8501 40.8719 46.8503 40.8721 46.8505C40.8722 46.8507 40.8723 46.8508 40.8724 46.851C40.8733 46.852 40.8741 46.8531 40.875 46.8542C40.8771 46.8569 40.8792 46.8596 40.8813 46.8623C40.8782 46.8582 40.8733 46.8551 40.8701 46.851L40.8694 46.8471Z" fill="#019EE3"/>
<path fill-rule="evenodd" clip-rule="evenodd" d="M62.3187 56.3446C62.2995 56.3444 62.2819 56.3432 62.2628 56.3429C62.2627 56.3429 62.2626 56.3429 62.2624 56.3429L62.2621 56.3429C62.2622 56.3429 62.2623 56.3429 62.2624 56.3429C62.2626 56.3429 62.2627 56.3429 62.2628 56.3429C62.2819 56.3432 62.2995 56.3444 62.3187 56.3446ZM74.0191 46.0661L74.019 46.0664L74.0181 46.068L74.0177 46.0688C73.9965 46.1114 73.973 46.1563 73.9504 46.2016C73.973 46.1563 73.9965 46.1114 74.0177 46.0688C74.0179 46.0686 74.018 46.0683 74.0181 46.068C74.0184 46.0675 74.0187 46.0669 74.019 46.0664C74.019 46.0663 74.019 46.0662 74.0191 46.0661ZM29.604 71.9004L29.605 71.9022C29.6047 71.9016 29.6043 71.901 29.604 71.9004ZM13.9434 43.8017L13.944 43.8028L13.9447 43.804L13.9453 43.8049L13.9454 43.8051C13.9527 43.8174 13.9584 43.8308 13.9658 43.8433C13.9584 43.8308 13.9525 43.8174 13.9454 43.8051C13.9454 43.805 13.9453 43.805 13.9453 43.8049C13.9451 43.8046 13.9449 43.8043 13.9447 43.804C13.9445 43.8036 13.9443 43.8032 13.944 43.8028C13.9438 43.8024 13.9436 43.802 13.9434 43.8017ZM35.4734 60.3987L35.4731 60.3981L35.4728 60.3975C35.4729 60.3977 35.473 60.3979 35.4731 60.3981C35.4732 60.3983 35.4733 60.3985 35.4734 60.3987ZM54.6259 66.3598L54.6257 66.3596L54.6248 66.3594C54.6247 66.3594 54.6248 66.3594 54.6248 66.3594C54.6248 66.3594 54.6249 66.3594 54.6249 66.3594C54.625 66.3594 54.625 66.3594 54.6251 66.3594C54.6252 66.3594 54.6252 66.3594 54.6252 66.3594C54.6253 66.3594 54.6253 66.3594 54.6253 66.3594C54.6254 66.3594 54.6254 66.3594 54.6254 66.3594C54.6254 66.3594 54.6255 66.3594 54.6255 66.3594" fill="#019EE3"/>
<path fill-rule="evenodd" clip-rule="evenodd" d="M35.4513 60.3505C35.4512 60.3503 35.4511 60.3502 35.451 60.35C35.4502 60.3481 35.4494 60.3463 35.4486 60.3445C35.4485 60.3443 35.4485 60.3442 35.4484 60.344C35.4481 60.3434 35.4479 60.3428 35.4476 60.3422C35.4474 60.3417 35.4472 60.3412 35.447 60.3407C35.4468 60.3403 35.4466 60.3399 35.4464 60.3395C35.4464 60.3393 35.4463 60.3392 35.4463 60.3391C35.4462 60.3391 35.4462 60.339 35.4462 60.339C35.4459 60.3382 35.4455 60.3373 35.4451 60.3365C35.4448 60.3358 35.4445 60.3351 35.4442 60.3344C35.4439 60.3338 35.4436 60.3331 35.4434 60.3325C35.4431 60.3319 35.4429 60.3314 35.4427 60.3309L35.4422 60.3297L35.4421 60.3295L35.4404 60.3256L35.44 60.3248L35.4393 60.3232L35.439 60.3225C35.4391 60.3227 35.4392 60.323 35.4393 60.3232C35.4396 60.3237 35.4398 60.3243 35.44 60.3248C35.4401 60.3251 35.4403 60.3253 35.4404 60.3256C35.4409 60.3269 35.4415 60.3282 35.4421 60.3295C35.4421 60.3296 35.4421 60.3297 35.4422 60.3297C35.4423 60.3301 35.4425 60.3305 35.4427 60.3309C35.4429 60.3314 35.4431 60.3319 35.4434 60.3325C35.4436 60.3331 35.4439 60.3338 35.4442 60.3344C35.4445 60.3351 35.4448 60.3358 35.4451 60.3365C35.4455 60.3373 35.4459 60.3382 35.4462 60.339C35.4462 60.339 35.4462 60.3391 35.4463 60.3391C35.4463 60.3392 35.4464 60.3393 35.4464 60.3395C35.4466 60.3399 35.4468 60.3403 35.447 60.3407C35.4472 60.3412 35.4474 60.3417 35.4476 60.3422C35.4479 60.3428 35.4481 60.3434 35.4484 60.344C35.4485 60.3442 35.4485 60.3443 35.4486 60.3445C35.4494 60.3463 35.4502 60.3481 35.451 60.35L35.4513 60.3505ZM29.6727 72.0225C29.6729 72.0229 29.6731 72.0232 29.6733 72.0235C29.6733 72.0236 29.6726 72.0247 29.6726 72.0248L29.6733 72.0235L29.6727 72.0225Z" fill="#019EE3"/>
<path fill-rule="evenodd" clip-rule="evenodd" d="M35.451 60.35L35.4513 60.3505C35.4513 60.3507 35.4514 60.3509 35.4515 60.3511C35.4516 60.3514 35.4517 60.3516 35.4519 60.3519C35.452 60.3521 35.4521 60.3524 35.4522 60.3526C35.4524 60.3532 35.4527 60.3539 35.453 60.3545C35.4531 60.3548 35.4532 60.3551 35.4534 60.3554C35.4542 60.3573 35.455 60.3592 35.4559 60.3611C35.4563 60.362 35.4567 60.363 35.4571 60.3639C35.4574 60.3645 35.4576 60.3651 35.4579 60.3658C35.4581 60.3662 35.4583 60.3667 35.4585 60.3671C35.4587 60.3676 35.4589 60.3681 35.4592 60.3686C35.4596 60.3697 35.4601 60.3707 35.4605 60.3718C35.4607 60.3722 35.4609 60.3726 35.4611 60.3731C35.4616 60.3743 35.4622 60.3756 35.4627 60.3768C35.4629 60.3772 35.463 60.3775 35.4632 60.3779C35.4642 60.3802 35.4652 60.3825 35.4662 60.3848C35.4665 60.3856 35.4669 60.3864 35.4672 60.3872C35.4672 60.3873 35.4673 60.3873 35.4673 60.3874C35.4673 60.3873 35.4672 60.3873 35.4672 60.3872C35.4669 60.3864 35.4665 60.3856 35.4662 60.3848C35.4652 60.3825 35.4642 60.3802 35.4632 60.3779L35.4627 60.3768L35.4611 60.3731C35.4609 60.3726 35.4607 60.3722 35.4605 60.3718C35.4601 60.3707 35.4596 60.3697 35.4592 60.3686C35.4589 60.3681 35.4587 60.3676 35.4585 60.3671C35.4583 60.3667 35.4581 60.3662 35.4579 60.3658C35.4576 60.3651 35.4574 60.3645 35.4571 60.3639C35.4567 60.363 35.4563 60.362 35.4559 60.3611C35.455 60.3592 35.4542 60.3573 35.4534 60.3554C35.4532 60.3551 35.4531 60.3548 35.453 60.3545C35.4527 60.3539 35.4524 60.3532 35.4522 60.3526L35.453 60.3545C35.4527 60.3539 35.4524 60.3532 35.4522 60.3526C35.4521 60.3524 35.452 60.3521 35.4519 60.3519C35.4517 60.3516 35.4516 60.3514 35.4515 60.3511C35.4514 60.3509 35.4513 60.3507 35.4513 60.3505C35.4512 60.3503 35.4511 60.3502 35.451 60.35C35.4502 60.3481 35.4494 60.3463 35.4486 60.3445C35.4485 60.3443 35.4485 60.3442 35.4484 60.344C35.4481 60.3434 35.4479 60.3428 35.4476 60.3422C35.4474 60.3417 35.4472 60.3412 35.447 60.3407C35.4468 60.3403 35.4466 60.3399 35.4464 60.3395C35.4464 60.3393 35.4463 60.3392 35.4463 60.3391C35.4462 60.3391 35.4462 60.339 35.4462 60.339C35.4459 60.3382 35.4455 60.3373 35.4451 60.3365C35.4448 60.3358 35.4445 60.3351 35.4442 60.3344C35.4439 60.3338 35.4436 60.3331 35.4434 60.3325L35.4442 60.3344C35.4445 60.3351 35.4448 60.3358 35.4451 60.3365C35.4455 60.3373 35.4459 60.3382 35.4462 60.339C35.4462 60.339 35.4462 60.3391 35.4463 60.3391C35.4463 60.3392 35.4464 60.3393 35.4464 60.3395C35.4466 60.3399 35.4468 60.3403 35.447 60.3407C35.4472 60.3412 35.4474 60.3417 35.4476 60.3422C35.4479 60.3428 35.4481 60.3434 35.4484 60.344C35.4485 60.3442 35.4485 60.3443 35.4486 60.3445L35.451 60.35Z" fill="#019EE3"/>
<path fill-rule="evenodd" clip-rule="evenodd" d="M40.8694 46.8471L40.8716 46.8499L40.8721 46.8505L40.8724 46.851L40.875 46.8542C40.8771 46.8569 40.8792 46.8596 40.8813 46.8623L41.0062 47.0445C41.1679 47.2544 41.3433 47.391 41.4783 47.4962L41.487 47.503L41.498 47.5116C41.5034 47.5158 41.5088 47.52 41.514 47.5241C41.5191 47.5277 41.5353 47.5389 41.5578 47.5544L41.6266 47.6018L41.6283 47.603L41.6286 47.6032C41.7097 47.6591 41.8064 47.7257 41.8244 47.7386C41.8912 47.7861 41.9807 47.8585 42.0855 47.9433C42.343 48.1517 42.693 48.435 43.0264 48.6076C44.1687 49.1793 48.1164 50.2384 49.1604 50.3908L51.5812 50.8535L53.7933 51.2711L55.6103 51.6774C59.2619 52.6983 61.8586 52.9641 63.1435 53.0957C63.4159 53.1236 63.6294 53.1454 63.7815 53.1672C65.0977 53.3411 64.7126 54.6343 63.742 55.7742C63.7404 55.7754 63.7385 55.7768 63.7365 55.7784L63.7349 55.7796L63.7279 55.7851L63.7271 55.7857L63.725 55.7873C63.6566 55.8408 63.4501 56.0021 63.0309 56.2087L63.0258 56.2113L63.0229 56.2128L63.0203 56.2141L63.0087 56.2201L63.0008 56.2242C62.9131 56.2699 62.7785 56.34 62.4892 56.3442C62.419 56.3452 62.34 56.344 62.2628 56.3429L62.2624 56.3429L62.2621 56.3429C62.1553 56.3413 62.0521 56.3398 61.9813 56.3442C61.9629 56.3453 61.7951 56.3442 61.7951 56.3442C61.7055 56.3507 61.5368 56.3468 61.3832 56.3329C61.3065 56.3219 60.6927 56.2543 59.9602 56.1737L59.9597 56.1736C59.0312 56.0714 57.912 55.9481 57.4539 55.8926C56.3116 55.7931 55.7652 55.8429 55.1195 56.166C54.002 56.7377 53.0604 57.7219 53.0604 59.0641C53.0604 60.1081 53.4622 60.7752 55.5483 62.7885C57.5586 64.7302 58.7326 65.7624 59.4135 66.361C59.7356 66.6442 59.9475 66.8305 60.0853 66.97C60.1172 67.0023 60.4099 67.271 60.6844 67.5231C60.9264 67.7452 61.1547 67.9548 61.18 67.9801C61.2525 68.0526 61.3574 68.1475 61.472 68.2513C61.6684 68.4289 61.8932 68.6324 62.0321 68.7927C62.4463 69.2706 62.7093 69.9721 62.7093 70.3107C62.7093 70.6493 62.6754 70.9882 62.4779 71.2982C62.3303 71.5299 61.8403 72.1334 60.8019 71.7779C60.4916 71.5524 60.3168 71.4167 60.1996 71.3257C60.0677 71.2233 60.0086 71.1774 59.9103 71.1233C59.8419 71.0856 59.4651 70.7665 59.1656 70.5129L59.1651 70.5124C59.0048 70.3767 58.8667 70.2597 58.8099 70.2148C58.7458 70.164 58.6018 70.0213 58.4006 69.822C57.9849 69.4101 57.3198 68.7511 56.5809 68.1302C56.3101 67.9026 55.3903 67.0998 55.0291 66.7386C54.8748 66.5843 54.748 66.4699 54.626 66.3599L54.6259 66.3598L54.6257 66.3596L54.6248 66.3594C54.6247 66.3594 54.6248 66.3594 54.6248 66.3594L54.6249 66.3594L54.6251 66.3594L54.6252 66.3594L54.6253 66.3594L54.6254 66.3594C54.6254 66.3594 54.6255 66.3594 54.6255 66.3594L54.6254 66.3593C54.4622 66.2121 54.3069 66.0721 54.1037 65.8527C53.9932 65.7335 53.8202 65.5789 53.5982 65.3805L53.5982 65.3805C53.4418 65.2407 53.261 65.0792 53.0604 64.8928C52.0737 63.9775 52.0031 63.9777 51.671 63.9785L51.6593 63.9786L51.6489 63.9786L51.6384 63.9786C51.565 63.9786 51.3788 64.0576 51.2546 64.1817C51.1642 64.2512 51.1156 64.3185 51.0515 64.6219C50.9611 65.0492 51.2728 65.4526 52.9656 67.6436L52.9656 67.6436C53.5173 68.3577 54.2163 69.2624 55.0953 70.4189C55.3598 70.7669 55.6401 71.1358 55.9373 71.5271C56.4215 72.1733 56.8444 72.7454 57.1983 73.2244L57.1984 73.2245L57.2 73.2267L57.2001 73.2268C57.7709 73.9991 58.1628 74.5294 58.3462 74.7399C58.5904 75.2282 58.804 75.9795 58.2576 76.6754C57.8851 77.1477 57.4881 77.3131 56.892 77.3131C56.1222 77.3131 55.4386 76.5118 53.4498 73.8313C52.7338 72.8664 52.2037 72.1682 51.8071 71.6458L51.8071 71.6457C51.3781 71.0807 51.1052 70.7212 50.9217 70.4518C50.5685 69.9334 49.4228 68.3124 49.2683 68.1432C48.8585 67.3585 48.2685 67.0042 47.5979 67.0042C47.2254 67.0042 47.0219 67.2767 47.0219 67.5004C47.0219 67.8733 48.8338 71.4161 49.1046 71.8224C49.2303 72.0109 49.3994 72.3624 49.551 72.6776C49.6718 72.9286 49.7815 73.1567 49.8495 73.2614C49.912 73.3576 49.9778 73.5043 50.0707 73.7115C50.2058 74.013 50.3984 74.4426 50.7221 75.0318C52.1873 77.7162 52.4203 78.1765 52.0954 78.8649C51.9117 79.2543 51.5665 79.7971 50.7221 79.8468C50.0268 79.8965 49.6464 79.6485 49.3981 79.3502C49.1994 79.1265 48.1896 77.2718 46.8982 74.7116C46.4801 73.8913 46.1204 73.1725 45.812 72.5562L45.8107 72.5536C45.1958 71.3245 44.7852 70.504 44.5225 70.1013C44.3306 69.8072 43.9246 69.8022 43.7945 69.8022C43.5214 69.8022 43.2178 70.1992 43.1682 70.4229C43.1433 70.6466 43.7233 72.3102 44.5676 74.2489C46.0825 77.8779 46.3634 78.7151 45.7922 79.4857C45.37 80.0573 44.071 80.0217 43.2528 79.4857C42.9612 79.2146 42.2695 77.47 40.735 73.5992L40.7349 73.5989C40.4401 72.8554 40.1142 72.0334 39.7541 71.1283C39.549 70.621 39.3304 70.099 39.1498 69.6678L39.1246 69.6076L39.1147 69.5839C38.9412 69.1697 38.807 68.848 38.761 68.7187C38.7114 68.5797 38.541 68.1404 38.3303 67.5975C37.9139 66.5242 37.3403 65.0456 37.2317 64.6783C37.0914 64.2039 36.0727 61.8082 35.4738 60.3996L35.4734 60.3987L35.4731 60.3981L35.4728 60.3975L35.4721 60.3959C35.2526 59.8796 35.0898 59.4967 35.0478 59.3908C34.9955 59.2155 34.839 58.7757 34.76 58.6234C34.7295 58.5644 34.674 58.4477 34.6123 58.3177C34.5144 58.1117 34.4003 57.8715 34.3425 57.7713C34.3221 57.736 34.2885 57.6641 34.2378 57.5555C34.0069 57.0616 33.4196 55.8055 32.0965 53.7478C32.0308 53.6455 31.9635 53.5398 31.8962 53.434L31.8952 53.4324C31.6597 53.0623 31.4232 52.6906 31.2444 52.4555C31.0232 52.165 30.7725 51.8105 30.6076 51.5357C30.3811 51.1583 30.1137 50.8218 29.7844 50.4076C29.6104 50.1887 29.419 49.9479 29.2073 49.6679C28.9853 49.3767 28.7401 49.0687 28.4755 48.7363C28.2226 48.4187 27.9516 48.0783 27.6667 47.7097C27.4577 47.4392 27.0219 46.8451 26.6222 46.3C26.2906 45.8478 25.9834 45.4289 25.8497 45.255C25.4006 44.6707 24.2637 43.3852 23.2607 42.251L23.2606 42.251C22.6364 41.5452 22.0641 40.898 21.7416 40.5149C21.7255 40.4957 21.7092 40.4763 21.6927 40.4567L21.6519 40.408L21.6468 40.4019L21.6468 40.4019C21.3114 40.0014 20.8871 39.4946 19.9245 38.568C19.1389 37.8118 18.2668 37.2632 17.0748 36.909C15.5351 36.4616 14.7366 36.4118 13.1472 36.909C11.7565 37.3315 11.0649 38.0956 11.0649 38.6922C11.0649 38.9159 11.2377 39.2391 11.6599 39.8605C12.0572 40.4819 12.6781 41.5259 13.0258 42.1721C13.3412 42.7826 13.5894 43.2026 13.9425 43.8002L13.9434 43.8017L13.944 43.8028L13.9447 43.804L13.9453 43.8049L13.9454 43.8051C14.0084 43.9117 14.0747 44.0239 14.1453 44.1439C14.223 44.2758 14.2912 44.3911 14.3558 44.5003L14.3711 44.5262C14.4316 44.6284 14.4896 44.7264 14.5495 44.8284C14.8041 45.2614 15.098 45.7729 15.8072 47.0439C16.8502 48.9826 17.9181 50.9711 18.1913 51.4931C18.3436 51.798 18.6301 52.3085 18.8178 52.5803C18.8178 52.5803 19.3723 53.5291 19.5796 53.8782C19.707 54.0928 19.8439 54.3223 19.9691 54.5321L19.9694 54.5326C20.1754 54.8779 20.3496 55.1699 20.3978 55.2551C20.3978 55.2551 21.2185 56.6044 21.3561 56.9287C21.3561 56.9287 22.3634 58.8504 22.7856 59.7204C22.7856 59.7204 24.0486 62.0876 24.3235 62.579C24.6194 63.1501 25.0476 63.9425 25.5104 64.7749C25.5104 64.7749 25.7928 65.2607 25.8632 65.3877C26.3351 66.2825 27.2291 67.8235 27.8251 68.7929C28.3417 69.6546 29.3084 71.3745 29.6033 71.8992L29.6034 71.8993L29.6035 71.8996L29.6037 71.8999L29.6038 71.9L29.6039 71.9002L29.604 71.9004L29.605 71.9022L29.6342 71.9542L29.6345 71.9545L29.6503 71.9827C29.6573 71.9952 29.6635 72.0062 29.6688 72.0156L29.6727 72.0225L29.6733 72.0235C29.6759 72.0282 29.6782 72.0323 29.6803 72.0359C29.6834 72.0415 29.6859 72.0459 29.6877 72.049C33.8349 78.1884 38.0071 81.892 42.6014 83.433C45.2835 84.3527 47.3199 84.6013 50.598 84.4521C56.3098 84.1787 60.7303 82.2399 64.9769 78.1139C67.0878 76.0757 68.6523 73.5404 72.4023 66.1333C74.2648 62.5044 77.3691 56.4147 79.3062 52.5869C81.2432 48.7591 83.8508 43.6636 85.0925 41.2775C87.0544 37.4994 87.3524 36.7537 87.3524 35.6352C87.3772 34.0692 86.8061 33.1744 85.2663 32.3791C84.0246 31.7577 83.2548 31.7079 82.1373 32.1802C81.0446 32.6525 79.249 35.6352 79.249 35.6352C79.1618 35.8126 76.432 41.2125 76.2921 41.4861C76.2921 41.4861 74.7354 44.7925 74.5314 45.0976C74.413 45.2749 74.259 45.5842 74.0192 46.0658L74.0191 46.0661L74.019 46.0664L74.0181 46.068L74.0177 46.0688C73.845 46.4157 73.6279 46.8517 73.3477 47.3918C71.9074 50.1508 71.5083 50.5487 70.2417 49.8776C69.7699 49.629 69.3477 49.2562 69.2732 49.0573L69.2707 49.0473L69.2668 49.0391C69.2769 48.9708 69.2882 48.8865 69.2973 48.8013L69.3036 48.7422C69.3568 48.2436 69.4399 47.4652 69.4985 47.3918C69.6723 47.1681 71.1623 43.6386 73.3477 38.2449C74.1176 36.331 74.962 34.3176 75.2103 33.7708C75.4586 33.224 76.2782 31.2106 77.0232 29.2967C78.2152 26.314 78.3891 25.6926 78.2152 24.9221C77.9172 23.555 77.2219 22.5608 76.2782 22.1134C75.3096 21.666 73.5712 21.5914 72.851 22.014C71.8164 22.5768 70.8917 23.5694 70.2417 24.9967L68.1943 30.1667L65.6324 36.9999C65.6324 36.9999 62.4704 44.5334 62.4208 45.0802C62.3959 45.1548 62.1724 45.6768 61.8744 46.2485C61.7228 46.552 61.5325 46.8798 61.3673 47.1643C61.3364 47.2174 61.1435 47.4575 60.9467 47.5559C60.7746 47.642 60.6074 47.6901 60.2602 47.6901C59.5152 47.6901 59.1427 47.541 58.795 47.0936L58.6278 46.7535L58.5715 46.2624V45.4531C58.5715 45.13 58.9688 43.1415 59.4407 41.0536C59.9374 38.9657 60.7569 35.113 61.3032 32.528C61.8247 29.9182 62.4953 26.7366 62.7933 25.4441C64.5565 17.4157 64.1319 16.694 62.9852 15.4321C62.1694 14.8058 61.6261 14.5075 60.6079 14.5075C59.9622 14.5075 59.2172 14.6566 58.944 14.8058C58.6708 14.9549 58.199 15.3278 57.9009 15.626C57.5824 15.9448 57.2493 16.6022 57.1306 16.8544C57.1249 16.8665 57.0642 17.0399 57.0454 17.0988L56.9898 17.3358C56.9898 17.3358 56.7666 18.0674 56.6669 18.4296C56.4866 19.0851 56.3647 19.775 56.3161 19.9522C56.19 20.4116 55.0947 25.121 53.9772 30.6638C53.7785 31.5587 53.3563 33.4477 53.0086 34.8893C52.6858 36.331 52.2884 38.1206 52.1394 38.8663C51.9904 39.612 51.6676 41.2027 51.4192 42.4207C51.3196 42.856 51.2338 43.2592 51.1615 43.5992C51.0357 44.1911 50.9556 44.5609 50.9048 44.6399C50.8032 44.8374 50.3266 45.1797 50.3266 45.1797C49.4325 45.7016 48.8365 45.6768 48.1908 45.0802C47.719 44.6328 47.6445 44.3097 47.6445 42.3958C47.6445 41.2027 47.7438 38.22 47.8928 35.7593C48.017 33.2986 48.2405 28.4516 48.3895 24.9967C48.6627 17.7637 48.5633 17.2417 46.8249 15.974C45.0866 14.7064 43.0005 15.1538 41.585 17.0677C41.0386 17.8133 40.8896 19.5533 40.5916 30.1667C40.4923 33.0997 40.3121 37.4398 40.1879 39.7762C40.0389 42.4855 39.9644 44.4978 40.1089 45.092C40.3985 46.2823 40.651 46.5848 40.8223 46.79L40.8244 46.7925L40.8385 46.8094L40.8417 46.8132L40.8431 46.815L40.848 46.8209L40.8526 46.8265C40.8547 46.829 40.8566 46.8313 40.8584 46.8336L40.8624 46.8385L40.8673 46.8445L40.8694 46.8471Z" fill="#019EE3"/>
</svg>
