<svg width="131" height="120" viewBox="0 0 131 120" fill="none" xmlns="http://www.w3.org/2000/svg">
<path fill-rule="evenodd" clip-rule="evenodd" d="M51.1793 55.4513C51.1806 55.4529 51.1819 55.4545 51.1831 55.4561C51.1834 55.4564 51.1837 55.4568 51.1839 55.4571C51.1841 55.4574 51.1843 55.4576 51.1845 55.4579C51.186 55.4597 51.1874 55.4615 51.1889 55.4633C51.1926 55.468 51.1962 55.4727 51.1999 55.4773C51.1944 55.4703 51.1861 55.4649 51.1805 55.4579L51.1793 55.4513Z" fill="#019EE3"/>
<path fill-rule="evenodd" clip-rule="evenodd" d="M88.0115 71.7363C87.9785 71.7358 87.9484 71.7338 87.9156 71.7333C87.9153 71.7333 87.9151 71.7333 87.9149 71.7333L87.9144 71.7333C87.9146 71.7333 87.9147 71.7333 87.9149 71.7333C87.9151 71.7333 87.9153 71.7333 87.9156 71.7333C87.9483 71.7338 87.9785 71.7358 88.0115 71.7363ZM108.103 54.1121L108.103 54.1126L108.101 54.1154L108.101 54.1168C108.064 54.1898 108.024 54.2667 107.985 54.3444C108.024 54.2667 108.064 54.1898 108.101 54.1168C108.101 54.1163 108.101 54.1159 108.101 54.1154C108.102 54.1145 108.102 54.1135 108.103 54.1126C108.103 54.1124 108.103 54.1123 108.103 54.1121ZM31.8347 98.409L31.8365 98.4121C31.8359 98.4111 31.8353 98.41 31.8347 98.409ZM4.94273 50.2293L4.94387 50.2313L4.94507 50.2333L4.94606 50.235L4.94622 50.2353C4.95872 50.2564 4.96858 50.2793 4.98124 50.3007C4.96859 50.2793 4.95852 50.2563 4.94622 50.2353C4.94617 50.2352 4.94611 50.2351 4.94606 50.235C4.94573 50.2344 4.9454 50.2339 4.94507 50.2333C4.94467 50.2326 4.94427 50.2319 4.94387 50.2313C4.94349 50.2306 4.94311 50.23 4.94273 50.2293ZM41.9134 78.6876L41.913 78.6865L41.9126 78.6855C41.9127 78.6858 41.9128 78.6862 41.913 78.6865C41.9131 78.6868 41.9133 78.6872 41.9134 78.6876ZM74.8016 88.9088L74.8013 88.9085L74.7997 88.9081C74.7997 88.9081 74.7997 88.9081 74.7998 88.9081C74.7998 88.9081 74.7999 88.9081 74.7999 88.9081C74.8 88.9081 74.8002 88.9081 74.8003 88.9081C74.8004 88.9081 74.8004 88.9081 74.8005 88.9081C74.8006 88.9081 74.8006 88.9081 74.8006 88.9081C74.8007 88.9081 74.8008 88.9081 74.8008 88.9081C74.8009 88.9081 74.8009 88.9081 74.8009 88.9081" fill="#019EE3"/>
<path fill-rule="evenodd" clip-rule="evenodd" d="M41.8755 78.605C41.8753 78.6046 41.8752 78.6043 41.875 78.604C41.8737 78.6009 41.8723 78.5977 41.8709 78.5946C41.8708 78.5943 41.8707 78.5941 41.8706 78.5938C41.8701 78.5928 41.8697 78.5918 41.8693 78.5908C41.8689 78.5899 41.8685 78.589 41.8681 78.5881C41.8678 78.5874 41.8675 78.5867 41.8672 78.586C41.8671 78.5858 41.867 78.5856 41.8669 78.5854C41.8669 78.5853 41.8669 78.5853 41.8668 78.5852C41.8662 78.5838 41.8656 78.5823 41.8649 78.5809C41.8644 78.5797 41.8639 78.5786 41.8634 78.5774C41.8629 78.5762 41.8624 78.5751 41.8619 78.574C41.8615 78.5731 41.8611 78.5722 41.8608 78.5713L41.8599 78.5693L41.8597 78.5689L41.8568 78.5622L41.8562 78.5608L41.855 78.5581L41.8545 78.557C41.8547 78.5573 41.8548 78.5577 41.855 78.5581C41.8554 78.559 41.8558 78.5599 41.8562 78.5608C41.8564 78.5613 41.8566 78.5618 41.8568 78.5622C41.8578 78.5644 41.8587 78.5667 41.8597 78.5689C41.8598 78.569 41.8598 78.5692 41.8599 78.5693C41.8602 78.57 41.8605 78.5706 41.8608 78.5713C41.8611 78.5722 41.8615 78.5731 41.8619 78.574C41.8624 78.5751 41.8629 78.5762 41.8634 78.5774C41.8639 78.5786 41.8644 78.5797 41.8649 78.5809C41.8656 78.5823 41.8662 78.5838 41.8668 78.5852C41.8669 78.5853 41.8669 78.5853 41.8669 78.5854C41.867 78.5856 41.8671 78.5858 41.8672 78.586C41.8675 78.5867 41.8678 78.5874 41.8681 78.5881C41.8685 78.589 41.8689 78.5899 41.8693 78.5908C41.8697 78.5918 41.8701 78.5928 41.8706 78.5938C41.8707 78.5941 41.8708 78.5943 41.8709 78.5946C41.8723 78.5977 41.8737 78.6009 41.875 78.604L41.8755 78.605ZM31.9527 98.6184C31.953 98.619 31.9533 98.6196 31.9537 98.6201C31.9537 98.6202 31.9525 98.6222 31.9525 98.6223L31.9537 98.6201L31.9527 98.6184Z" fill="#019EE3"/>
<path fill-rule="evenodd" clip-rule="evenodd" d="M41.875 78.604L41.8755 78.605C41.8756 78.6053 41.8758 78.6057 41.8759 78.606C41.8761 78.6064 41.8763 78.6069 41.8765 78.6073C41.8767 78.6077 41.8769 78.6081 41.877 78.6086C41.8775 78.6096 41.878 78.6107 41.8784 78.6117C41.8787 78.6123 41.8789 78.6128 41.8791 78.6133C41.8806 78.6166 41.882 78.6198 41.8834 78.6231C41.8841 78.6247 41.8848 78.6263 41.8855 78.6279C41.886 78.629 41.8864 78.63 41.8869 78.6311C41.8872 78.6319 41.8876 78.6326 41.8879 78.6334C41.8883 78.6343 41.8887 78.6351 41.889 78.636C41.8898 78.6378 41.8906 78.6396 41.8914 78.6415C41.8918 78.6422 41.8921 78.6429 41.8924 78.6436C41.8933 78.6457 41.8942 78.6479 41.8952 78.65C41.8954 78.6507 41.8957 78.6513 41.896 78.6519C41.8977 78.6558 41.8994 78.6598 41.9011 78.6637C41.9017 78.6651 41.9023 78.6665 41.9029 78.6679C41.9029 78.668 41.903 78.6681 41.903 78.6682C41.903 78.6681 41.9029 78.668 41.9029 78.6679C41.9023 78.6665 41.9017 78.6651 41.9011 78.6637C41.8994 78.6598 41.8977 78.6558 41.896 78.6519L41.8952 78.65L41.8924 78.6436C41.8921 78.6429 41.8918 78.6422 41.8914 78.6415C41.8906 78.6396 41.8898 78.6378 41.889 78.636C41.8887 78.6351 41.8883 78.6343 41.8879 78.6334C41.8876 78.6326 41.8872 78.6319 41.8869 78.6311C41.8864 78.63 41.886 78.629 41.8855 78.6279C41.8848 78.6263 41.8841 78.6247 41.8834 78.6231C41.882 78.6198 41.8806 78.6166 41.8791 78.6133C41.8789 78.6128 41.8787 78.6123 41.8784 78.6117C41.878 78.6107 41.8775 78.6096 41.877 78.6086L41.8784 78.6117C41.878 78.6107 41.8775 78.6096 41.877 78.6086C41.8769 78.6081 41.8767 78.6077 41.8765 78.6073C41.8763 78.6069 41.8761 78.6064 41.8759 78.606C41.8758 78.6057 41.8756 78.6053 41.8755 78.605C41.8753 78.6046 41.8752 78.6043 41.875 78.604C41.8737 78.6009 41.8723 78.5977 41.8709 78.5946C41.8708 78.5943 41.8707 78.5941 41.8706 78.5938C41.8701 78.5928 41.8697 78.5918 41.8693 78.5908C41.8689 78.5899 41.8685 78.589 41.8681 78.5881C41.8678 78.5874 41.8675 78.5867 41.8672 78.586C41.8671 78.5858 41.867 78.5856 41.8669 78.5854C41.8669 78.5853 41.8669 78.5853 41.8668 78.5852C41.8662 78.5838 41.8656 78.5823 41.8649 78.5809C41.8644 78.5797 41.8639 78.5786 41.8634 78.5774C41.8629 78.5762 41.8624 78.5751 41.8619 78.574L41.8634 78.5774C41.8639 78.5786 41.8644 78.5797 41.8649 78.5809C41.8656 78.5823 41.8662 78.5838 41.8668 78.5852C41.8669 78.5853 41.8669 78.5853 41.8669 78.5854C41.867 78.5856 41.8671 78.5858 41.8672 78.586C41.8675 78.5867 41.8678 78.5874 41.8681 78.5881C41.8685 78.589 41.8689 78.5899 41.8693 78.5908C41.8697 78.5918 41.8701 78.5928 41.8706 78.5938C41.8707 78.5941 41.8708 78.5943 41.8709 78.5946L41.875 78.604Z" fill="#019EE3"/>
<path fill-rule="evenodd" clip-rule="evenodd" d="M51.1793 55.4513L51.1831 55.4561L51.1839 55.4571L51.1845 55.4579L51.1889 55.4633C51.1926 55.468 51.1962 55.4727 51.1999 55.4773L51.4142 55.7896C51.6919 56.1496 51.9931 56.3839 52.2249 56.5642L52.2398 56.5758L52.2588 56.5906C52.2681 56.5978 52.2773 56.605 52.2863 56.6121C52.295 56.6182 52.3229 56.6374 52.3616 56.6641L52.4797 56.7454L52.4824 56.7473L52.4831 56.7477C52.6222 56.8435 52.7883 56.9578 52.8193 56.9798C52.934 57.0613 53.0877 57.1855 53.2676 57.3309C53.7098 57.6883 54.3108 58.1739 54.8833 58.4699C56.8449 59.4501 63.6237 61.2662 65.4164 61.5274L69.5734 62.3209L73.3719 63.0369L76.4921 63.7335C82.7625 65.484 87.2213 65.9398 89.4278 66.1654C89.8956 66.2132 90.2622 66.2507 90.5233 66.2879C92.7834 66.5863 92.1222 68.8037 90.4555 70.7582C90.4527 70.7602 90.4496 70.7626 90.446 70.7654L90.4434 70.7674L90.4313 70.7769L90.43 70.7778L90.4264 70.7807C90.3089 70.8723 89.9542 71.1489 89.2345 71.5032L89.2256 71.5077L89.2207 71.5101L89.2162 71.5124L89.1964 71.5226L89.1827 71.5297C89.0322 71.608 88.8011 71.7283 88.3043 71.7355C88.1838 71.7372 88.048 71.7352 87.9156 71.7333L87.9149 71.7333L87.9144 71.7333C87.7308 71.7306 87.5537 71.728 87.4322 71.7355C87.4006 71.7374 87.1124 71.7355 87.1124 71.7355C86.9585 71.7467 86.6688 71.7399 86.405 71.7161C86.2734 71.6973 85.2194 71.5814 83.9615 71.4431L83.9608 71.443C82.3663 71.2677 80.4444 71.0564 79.6578 70.9611C77.6962 70.7906 76.758 70.8759 75.6493 71.4299C73.7303 72.4102 72.1134 74.0978 72.1134 76.3992C72.1134 78.1892 72.8034 79.3331 76.3855 82.7853C79.8376 86.1146 81.8536 87.8844 83.0228 88.9108C83.5759 89.3964 83.9398 89.7158 84.1763 89.9551C84.2311 90.0105 84.7337 90.4713 85.2051 90.9034C85.6206 91.2842 86.0128 91.6437 86.0562 91.6871C86.1806 91.8113 86.3608 91.9741 86.5576 92.152C86.8948 92.4567 87.2808 92.8055 87.5194 93.0804C88.2305 93.8998 88.6822 95.1027 88.6822 95.6832C88.6822 96.2638 88.624 96.8449 88.2849 97.3765C88.0315 97.7737 87.1899 98.8085 85.4069 98.199C84.874 97.8124 84.5739 97.5796 84.3727 97.4236C84.1461 97.248 84.0447 97.1693 83.8759 97.0765C83.7584 97.0119 83.1115 96.4648 82.5972 96.0299L82.5963 96.0291C82.321 95.7964 82.0839 95.5958 81.9864 95.5187C81.8763 95.4317 81.6289 95.187 81.2834 94.8452C80.5696 94.1389 79.4275 93.009 78.1588 91.9444C77.6937 91.5542 76.1142 90.1776 75.494 89.5584C75.229 89.2938 75.0113 89.0976 74.8018 88.9089L74.8016 88.9088L74.8013 88.9085L74.7997 88.9081C74.7997 88.9081 74.7997 88.9081 74.7998 88.9081L74.7999 88.9081L74.8003 88.9081L74.8005 88.9081L74.8006 88.9081L74.8008 88.9081C74.8009 88.9081 74.8009 88.9081 74.8009 88.9081L74.8008 88.908C74.5205 88.6556 74.2538 88.4154 73.9048 88.0393C73.7152 87.8349 73.4181 87.5698 73.037 87.2297L73.0369 87.2296C72.7683 86.99 72.4578 86.713 72.1134 86.3933C70.4191 84.8239 70.2978 84.8242 69.7276 84.8257L69.7075 84.8258L69.6896 84.8258L69.6715 84.8258C69.5455 84.8258 69.2258 84.9613 69.0126 85.1742C68.8572 85.2933 68.7739 85.4087 68.6637 85.9289C68.5086 86.6616 69.0437 87.3532 71.9506 91.11L71.9507 91.1101C72.898 92.3345 74.0983 93.8857 75.6077 95.8688C76.0618 96.4654 76.5433 97.098 77.0535 97.7689C77.885 98.8769 78.6111 99.8579 79.2189 100.679L79.2191 100.679L79.2219 100.683L79.2221 100.683C80.2021 102.008 80.875 102.917 81.1901 103.278C81.6093 104.115 81.9761 105.403 81.038 106.597C80.3983 107.406 79.7164 107.69 78.693 107.69C77.371 107.69 76.1973 106.316 72.782 101.72C71.5526 100.065 70.6423 98.8682 69.9613 97.9725L69.9612 97.9723C69.2246 97.0035 68.756 96.3872 68.4409 95.9252C67.8344 95.0363 65.867 92.2567 65.6017 91.9666C64.898 90.6212 63.8848 90.0136 62.7334 90.0136C62.0938 90.0136 61.7442 90.481 61.7442 90.8646C61.7442 91.5038 64.8556 97.5786 65.3207 98.2753C65.5364 98.5984 65.8268 99.2012 66.0872 99.7416C66.2945 100.172 66.4829 100.563 66.5998 100.743C66.7071 100.908 66.82 101.159 66.9796 101.514C67.2116 102.031 67.5423 102.768 68.0982 103.778C70.6142 108.381 71.0142 109.17 70.4564 110.351C70.141 111.018 69.5481 111.949 68.0982 112.034C66.9042 112.12 66.251 111.694 65.8246 111.183C65.4834 110.799 63.7494 107.619 61.5319 103.229C60.8138 101.823 60.1962 100.59 59.6667 99.5335L59.6645 99.5291C58.6085 97.4216 57.9035 96.0146 57.4524 95.3242C57.1228 94.8198 56.4256 94.8113 56.2023 94.8113C55.7333 94.8113 55.212 95.4921 55.1267 95.8757C55.0841 96.2592 56.08 99.1116 57.5299 102.436C60.1312 108.658 60.6134 110.094 59.6326 111.415C58.9077 112.395 56.6771 112.334 55.2721 111.415C54.7713 110.95 53.5836 107.959 50.9486 101.322L50.9483 101.321C50.4422 100.046 49.8826 98.637 49.2643 97.0852C48.9119 96.2153 48.5366 95.3202 48.2265 94.5808L48.1832 94.4776L48.1662 94.437C47.8684 93.7268 47.6379 93.1752 47.5588 92.9536C47.4737 92.7151 47.1811 91.962 46.8193 91.031C46.1043 89.1907 45.1192 86.6553 44.9328 86.0257C44.692 85.2122 42.9426 81.1043 41.9141 78.6892L41.9134 78.6876L41.913 78.6865L41.9126 78.6855L41.9114 78.6827C41.5344 77.7975 41.2548 77.1409 41.1828 76.9594C41.0928 76.6587 40.8242 75.9047 40.6886 75.6435C40.6361 75.5424 40.5408 75.3422 40.4348 75.1193C40.2667 74.7661 40.0708 74.3544 39.9715 74.1824C39.9366 74.1219 39.8788 73.9986 39.7917 73.8125C39.3952 72.9656 38.3868 70.8118 36.1148 67.2835C36.0019 67.1082 35.8865 66.9269 35.7709 66.7456L35.7691 66.7427C35.3647 66.1082 34.9586 65.4709 34.6516 65.0677C34.2717 64.5695 33.8412 63.9617 33.5581 63.4906C33.1691 62.8434 32.7099 62.2666 32.1446 61.5563C31.8458 61.1809 31.5171 60.768 31.1535 60.2879C30.7723 59.7886 30.3512 59.2605 29.8969 58.6906C29.4627 58.146 28.9973 57.5622 28.5082 56.9303C28.1491 56.4665 27.4009 55.4478 26.7144 54.5131C26.145 53.7378 25.6175 53.0196 25.388 52.7214C24.6168 51.7194 22.6645 49.5152 20.9422 47.5706L20.9421 47.5704C19.8703 46.3603 18.8874 45.2506 18.3336 44.5936C18.3059 44.5608 18.278 44.5276 18.2497 44.4939L18.1797 44.4104L18.1709 44.4L18.1709 44.4C17.595 43.7131 16.8664 42.8442 15.2134 41.2555C13.8644 39.9588 12.3668 39.0181 10.3199 38.4108C7.67597 37.6436 6.30486 37.5584 3.57563 38.4108C1.18756 39.1353 0 40.4455 0 41.4683C0 41.8519 0.296677 42.4062 1.02163 43.4717C1.70394 44.5372 2.77005 46.3272 3.36707 47.4353C3.90879 48.482 4.33495 49.2022 4.94126 50.2269L4.94273 50.2293L4.94387 50.2313L4.94507 50.2333L4.94606 50.235L4.94622 50.2353C5.05436 50.418 5.16825 50.6105 5.28954 50.8163C5.42284 51.0424 5.53998 51.24 5.65099 51.4273L5.67732 51.4717C5.78116 51.6469 5.8807 51.8149 5.98366 51.9898C6.42075 52.7324 6.92547 53.6093 8.14324 55.7887C9.93429 59.1129 11.768 62.5225 12.2371 63.4175C12.4987 63.9403 12.9907 64.8156 13.3129 65.2817C13.3129 65.2817 14.2651 66.9086 14.6211 67.5071C14.8399 67.8751 15.075 68.2687 15.29 68.6284L15.2904 68.6292C15.6441 69.2213 15.9433 69.722 16.0261 69.868C16.0261 69.868 17.4354 72.1816 17.6717 72.7376C17.6717 72.7376 19.4014 76.0328 20.1263 77.5245C20.1263 77.5245 22.2951 81.5834 22.7673 82.426C23.2754 83.4053 24.0107 84.7639 24.8053 86.1912C24.8053 86.1912 25.2902 87.0243 25.4112 87.2419C26.2214 88.7762 27.7567 91.4186 28.7801 93.0808C29.6671 94.5583 31.3271 97.5072 31.8336 98.407L31.8337 98.4071L31.834 98.4076L31.8343 98.4081L31.8344 98.4084L31.8346 98.4087L31.8347 98.409L31.8365 98.4121L31.8867 98.5012L31.887 98.5019L31.9143 98.5502C31.9263 98.5716 31.9369 98.5905 31.946 98.6065L31.9527 98.6184L31.9537 98.6201C31.9582 98.6281 31.9622 98.6352 31.9657 98.6414C31.9711 98.651 31.9754 98.6585 31.9784 98.6639C39.1 109.191 46.2643 115.541 54.1535 118.184C58.7591 119.76 62.256 120.187 67.885 119.931C77.6931 119.462 85.284 116.138 92.5761 109.063C96.2009 105.568 98.8875 101.221 105.327 88.5205C108.525 82.2981 113.856 71.8563 117.182 65.293C120.508 58.7297 124.986 49.9927 127.118 45.9012C130.487 39.4231 130.999 38.1445 130.999 36.2266C131.041 33.5416 130.06 32.0073 127.417 30.6435C125.284 29.5781 123.962 29.4928 122.043 30.3026C120.167 31.1123 117.084 36.2266 117.084 36.2266C116.934 36.5309 112.246 45.7898 112.006 46.2589C112.006 46.2589 109.333 51.9282 108.983 52.4515C108.779 52.7554 108.515 53.2859 108.103 54.1115L108.103 54.1121L108.103 54.1126L108.101 54.1154L108.101 54.1168C107.804 54.7116 107.431 55.4592 106.95 56.3853C104.477 61.116 103.792 61.7982 101.617 60.6475C100.806 60.2213 100.081 59.582 99.9536 59.241L99.9492 59.2238L99.9426 59.2098C99.96 59.0927 99.9794 58.948 99.995 58.802L100.006 58.7006C100.097 57.8458 100.24 56.511 100.34 56.3853C100.639 56.0017 103.198 49.9497 106.95 40.7014C108.272 37.4197 109.722 33.9675 110.149 33.0299C110.575 32.0923 111.982 28.6401 113.262 25.3584C115.309 20.2441 115.607 19.1786 115.309 17.8574C114.797 15.5134 113.603 13.8086 111.982 13.0415C110.319 12.2743 107.334 12.1465 106.097 12.871C104.321 13.836 102.733 15.5381 101.617 17.9853L98.1009 26.8502L93.7016 38.5666C93.7016 38.5666 88.272 51.484 88.1868 52.4217C88.1441 52.5495 87.7603 53.4445 87.2486 54.4248C86.9882 54.9453 86.6614 55.5073 86.3778 55.9951C86.3248 56.0863 85.9935 56.4979 85.6555 56.6667C85.36 56.8142 85.0729 56.8967 84.4767 56.8967C83.1974 56.8967 82.5577 56.641 81.9606 55.8739L81.6736 55.2907L81.5769 54.4488V53.061C81.5769 52.5069 82.2592 49.0974 83.0694 45.5174C83.9223 41.9374 85.3296 35.3313 86.2678 30.899C87.1633 26.424 88.3147 20.9687 88.8264 18.7525C91.8541 4.9865 91.125 3.74911 89.156 1.58538C87.7552 0.511406 86.8221 -1.52588e-05 85.0737 -1.52588e-05C83.965 -1.52588e-05 82.6856 0.255699 82.2165 0.511414C81.7475 0.767128 80.9372 1.40643 80.4255 1.91786C79.8785 2.46452 79.3065 3.5917 79.1026 4.02415C79.0928 4.04492 78.9886 4.34216 78.9563 4.44314L78.8608 4.84956C78.8608 4.84956 78.4776 6.10399 78.3064 6.72505C77.9968 7.84892 77.7874 9.03193 77.7039 9.33571C77.4874 10.1235 75.6066 18.1985 73.6876 27.7025C73.3465 29.2368 72.6215 32.4759 72.0245 34.9478C71.4701 37.4197 70.7878 40.4883 70.532 41.7669C70.2761 43.0455 69.7217 45.7731 69.2953 47.8615C69.1241 48.608 68.9769 49.2992 68.8527 49.8823C68.6366 50.8971 68.499 51.5312 68.4118 51.6667C68.2374 52.0053 67.4189 52.5922 67.4189 52.5922C65.8837 53.4872 64.8603 53.4446 63.7515 52.4217C62.9413 51.6546 62.8133 51.1005 62.8133 47.8188C62.8133 45.7731 62.9839 40.6587 63.2398 36.4395C63.453 32.2202 63.8368 23.9094 64.0927 17.9853C64.5617 5.58318 64.3912 4.68811 61.4061 2.51453C58.421 0.340958 54.8388 1.10809 52.4081 4.38976C51.4699 5.66835 51.2141 8.65183 50.7023 26.8502C50.5317 31.8792 50.2224 39.3209 50.0092 43.3271C49.7533 47.9726 49.6253 51.423 49.8735 52.4418C50.3708 54.4827 50.8044 55.0015 51.0984 55.3533L51.1021 55.3576L51.1263 55.3867L51.1317 55.3932L51.1342 55.3961L51.1426 55.4063L51.1506 55.416C51.1541 55.4203 51.1573 55.4242 51.1606 55.4281L51.1673 55.4365L51.1757 55.4468L51.1793 55.4513Z" fill="#019EE3"/>
</svg>
